<?xml version="1.0" standalone="no"?>
<!DOCTYPE svg PUBLIC "-//W3C//DTD SVG 20010904//EN"
 "http://www.w3.org/TR/2001/REC-SVG-20010904/DTD/svg10.dtd">
<svg version="1.0" xmlns="http://www.w3.org/2000/svg"
 width="512.000000pt" height="512.000000pt" viewBox="0 0 512.000000 512.000000"
 preserveAspectRatio="xMidYMid meet">
<metadata>
Created by potrace 1.16, written by Peter Selinger 2001-2019
</metadata>
<g transform="translate(0.000000,512.000000) scale(0.100000,-0.100000)"
fill="#000000" stroke="none">
<path d="M2375 4629 c-291 -22 -568 -110 -780 -247 -87 -56 -199 -146 -248
-201 -178 -198 -302 -459 -359 -758 -19 -102 -23 -151 -23 -358 0 -211 3 -254
23 -353 68 -336 209 -680 434 -1057 365 -611 915 -1185 1135 -1185 185 0 602
393 960 906 344 493 565 989 627 1406 20 134 21 417 1 555 -111 782 -607 1232
-1425 1293 -150 11 -186 11 -345 -1z m371 -789 c388 -99 643 -460 603 -855
-33 -325 -273 -602 -594 -686 -111 -29 -280 -29 -389 0 -159 42 -309 136 -411
259 -71 84 -148 241 -171 346 -24 114 -16 292 20 401 89 275 313 479 591 540
94 21 258 18 351 -5z"/>
</g>
</svg>
