<?xml version="1.0" standalone="no"?>
<!DOCTYPE svg PUBLIC "-//W3C//DTD SVG 20010904//EN"
 "http://www.w3.org/TR/2001/REC-SVG-20010904/DTD/svg10.dtd">
<svg version="1.0" xmlns="http://www.w3.org/2000/svg"
 width="250.000000pt" height="206.000000pt" viewBox="0 0 250.000000 206.000000"
 preserveAspectRatio="xMidYMid meet">
<metadata>
Created by potrace 1.16, written by Peter Selinger 2001-2019
</metadata>
<g transform="translate(0.000000,206.000000) scale(0.100000,-0.100000)"
fill="#000000" stroke="none">
<path d="M1088 1760 c-117 -20 -236 -82 -296 -156 -67 -81 -79 -198 -30 -286
13 -23 54 -67 92 -97 l68 -55 -4 -66 c-3 -65 -39 -159 -63 -167 -6 -2 -18 20
-29 48 -51 145 -236 241 -399 209 -242 -47 -359 -308 -239 -533 106 -197 384
-236 556 -77 83 77 129 211 102 297 -5 17 -1 22 21 28 62 15 176 79 230 129
73 67 86 74 170 86 104 15 166 36 234 83 134 90 182 233 120 354 -71 140 -328
237 -533 203z m275 -130 c110 -42 187 -120 187 -190 0 -51 -48 -122 -104 -155
-64 -37 -125 -54 -225 -61 l-86 -6 -51 -50 c-49 -48 -51 -49 -57 -26 -4 13 -7
41 -7 63 0 37 -3 42 -34 53 -49 18 -114 68 -136 105 -62 102 32 235 200 282
79 22 237 15 313 -15z"/>
<path d="M1817 1190 c-99 -25 -199 -106 -237 -193 -84 -192 -10 -398 175 -484
50 -23 74 -27 145 -28 111 0 174 22 244 85 79 73 110 148 110 265 0 69 -5 103
-23 147 -49 126 -163 206 -304 213 -40 3 -89 0 -110 -5z"/>
<path d="M1094 566 c-65 -62 -145 -143 -177 -180 l-59 -66 52 -56 c28 -31 50
-62 48 -69 -2 -8 -30 -41 -62 -75 -64 -67 -67 -67 -87 5 -31 115 -106 209
-204 256 -51 25 -72 29 -141 29 -70 0 -89 -4 -141 -30 -106 -53 -182 -156
-219 -293 -26 -97 -86 -88 524 -85 l538 3 31 25 c54 44 76 86 81 153 l5 62 93
101 92 100 -110 117 c-60 64 -118 117 -127 117 -10 0 -71 -51 -137 -114z m184
-69 c23 -23 42 -47 42 -52 0 -5 -26 -35 -57 -67 -52 -53 -61 -58 -101 -58 -26
0 -59 -9 -83 -22 -39 -23 -40 -23 -54 -4 -8 11 -15 24 -15 30 0 10 209 216
219 216 4 0 26 -19 49 -43z"/>
<path d="M1820 410 c-116 -21 -242 -94 -308 -177 -38 -48 -78 -126 -96 -188
l-14 -45 505 0 506 0 -7 33 c-19 97 -110 230 -199 291 -106 73 -267 109 -387
86z"/>
</g>
</svg>
