<?xml version="1.0" standalone="no"?>
<!DOCTYPE svg PUBLIC "-//W3C//DTD SVG 20010904//EN"
 "http://www.w3.org/TR/2001/REC-SVG-20010904/DTD/svg10.dtd">
<svg version="1.0" xmlns="http://www.w3.org/2000/svg"
 width="512.000000pt" height="512.000000pt" viewBox="0 0 512.000000 512.000000"
 preserveAspectRatio="xMidYMid meet">
<metadata>
Created by potrace 1.16, written by Peter Selinger 2001-2019
</metadata>
<g transform="translate(0.000000,512.000000) scale(0.100000,-0.100000)"
fill="#000000" stroke="none">
<path d="M332 4470 c-123 -18 -245 -111 -300 -228 l-27 -57 -3 -1122 -2 -1123
271 0 272 0 -60 39 c-71 46 -122 106 -160 187 -25 53 -28 70 -28 165 0 101 1
108 38 181 63 129 176 213 318 238 154 27 325 -46 414 -175 21 -30 40 -55 42
-55 1 0 3 441 3 980 l0 980 -362 -1 c-200 -1 -387 -5 -416 -9z"/>
<path d="M1270 3529 l0 -951 60 55 c72 67 144 103 238 118 223 37 445 -129
484 -363 26 -159 -64 -338 -212 -422 l-45 -26 1663 0 1662 0 -2 1123 -3 1122
-32 66 c-59 119 -172 200 -306 220 -35 5 -814 9 -1784 9 l-1723 0 0 -951z"/>
<path d="M640 2591 c-44 -14 -87 -40 -121 -73 -129 -130 -77 -370 95 -432 43
-16 435 -91 440 -85 2 2 -13 94 -34 204 -44 227 -69 289 -134 336 -67 50 -175
71 -246 50z"/>
<path d="M1539 2585 c-58 -19 -131 -82 -156 -137 -21 -44 -100 -435 -90 -444
9 -10 400 67 449 88 132 56 195 227 129 355 -60 118 -206 179 -332 138z"/>
<path d="M2 1358 l3 -423 29 -55 c42 -80 70 -114 130 -155 104 -72 129 -75
562 -75 l384 0 0 520 c0 286 -3 520 -7 520 -4 0 -101 -93 -215 -207 -183 -183
-210 -206 -239 -206 -23 0 -39 8 -56 27 -45 53 -39 64 167 271 104 105 190
194 190 198 0 4 -214 7 -475 7 l-476 0 3 -422z"/>
<path d="M1672 1523 c141 -142 261 -268 267 -280 25 -49 -14 -103 -74 -103
-26 0 -66 36 -305 275 -151 151 -278 275 -282 275 -5 0 -8 -234 -8 -520 l0
-520 1748 0 c1547 0 1755 2 1807 16 115 29 201 100 258 209 l32 60 3 423 3
422 -1853 0 -1853 0 257 -257z"/>
</g>
</svg>
