
<svg version="1.0" xmlns="http://www.w3.org/2000/svg"
 width="512.000000pt" height="512.000000pt" viewBox="0 0 512.000000 512.000000"
 preserveAspectRatio="xMidYMid meet">
<g transform="translate(0.000000,512.000000) scale(0.100000,-0.100000)"
fill="#000000" stroke="none">
<path d="M2100 5105 c-6 -8 -15 -43 -20 -79 -22 -177 -152 -310 -326 -336 -38
-5 -72 -10 -75 -10 -4 0 -12 -13 -19 -30 -10 -25 -10 -34 3 -53 13 -20 27 -25
78 -31 126 -13 249 -97 303 -209 15 -29 30 -84 35 -124 11 -84 13 -89 47 -97
39 -10 74 17 74 57 0 55 29 149 62 200 61 95 148 150 274 172 80 14 94 23 94
66 0 37 -19 49 -97 60 -177 25 -311 162 -329 338 -4 34 -13 69 -21 77 -19 18
-67 18 -83 -1z"/>
<path d="M3257 4987 c-53 -17 -106 -63 -128 -111 -17 -37 -19 -71 -19 -371
l-1 -330 -262 -185 c-208 -147 -266 -193 -284 -225 -50 -90 -38 -189 31 -260
45 -46 58 -51 280 -121 l149 -46 -1482 -1482 c-814 -814 -1481 -1486 -1481
-1491 0 -13 292 -305 305 -305 6 0 676 666 1489 1479 l1480 1480 52 -169 c62
-197 71 -218 119 -258 80 -66 187 -68 271 -6 17 13 112 138 210 278 l179 255
333 0 c311 1 335 2 371 21 105 53 149 188 95 291 -8 16 -92 134 -187 262 -95
127 -176 237 -180 243 -3 6 39 146 94 310 89 265 100 305 96 356 -6 106 -85
185 -194 195 -54 4 -80 -3 -353 -96 -162 -56 -300 -99 -307 -97 -6 3 -118 84
-247 180 -130 97 -250 183 -266 191 -42 22 -117 27 -163 12z"/>
<path d="M762 3313 c-5 -10 -12 -44 -15 -76 -17 -169 -165 -318 -335 -334 -63
-6 -92 -25 -92 -58 0 -41 23 -58 93 -66 178 -22 313 -160 336 -343 8 -72 18
-86 62 -86 38 0 56 27 62 96 14 170 156 311 334 333 67 8 93 25 93 61 0 35
-26 53 -91 62 -184 25 -319 160 -338 340 -4 43 -13 73 -22 79 -25 15 -78 11
-87 -8z"/>
<path d="M3856 2108 c-7 -13 -16 -49 -19 -80 -10 -102 -68 -200 -155 -260 -50
-34 -146 -68 -196 -68 -45 0 -69 -21 -69 -59 0 -44 13 -53 89 -62 177 -22 315
-160 333 -335 8 -74 22 -94 67 -94 40 0 49 14 58 95 19 171 163 314 337 334
67 8 89 23 89 61 0 39 -27 57 -94 63 -172 17 -315 166 -333 347 -7 68 -16 80
-59 80 -24 0 -38 -6 -48 -22z"/>
</g>
</svg>
