<svg version="1.0" xmlns="http://www.w3.org/2000/svg"
 width="497.000000pt" height="467.000000pt" viewBox="0 0 497.000000 467.000000"
 preserveAspectRatio="xMidYMid meet">
<g transform="translate(0.000000,467.000000) scale(0.100000,-0.100000)"
fill="#000000" stroke="none">
<path d="M0 2335 l0 -2335 2485 0 2485 0 0 2335 0 2335 -2485 0 -2485 0 0
-2335z m2205 1164 c189 -32 321 -73 485 -152 58 -28 107 -54 110 -57 3 -4 12
-9 20 -12 38 -14 270 -206 270 -223 0 -1 -73 -5 -162 -7 -174 -6 -202 -11
-373 -65 -275 -87 -521 -263 -639 -457 -75 -122 -106 -202 -131 -333 -19 -98
-19 -158 0 -255 29 -154 67 -246 151 -366 24 -35 44 -66 44 -69 0 -14 -359 7
-460 26 -143 28 -318 80 -390 117 -24 11 -32 9 -99 -32 -40 -24 -75 -44 -78
-44 -2 0 -69 -38 -148 -85 -79 -47 -148 -85 -154 -85 -6 0 -11 -3 -11 -8 0 -4
-21 -19 -47 -32 -27 -14 -65 -35 -85 -48 -21 -12 -38 -18 -38 -13 0 5 20 46
44 92 25 46 71 136 104 199 32 63 78 150 101 193 l42 79 -63 67 c-95 102 -102
111 -145 181 -47 76 -88 176 -104 251 -16 73 -6 310 15 369 61 169 176 328
323 447 27 21 50 40 53 43 34 36 269 158 383 199 128 46 306 85 472 101 120
12 374 2 510 -21z m1229 -565 c105 -20 248 -55 261 -64 6 -3 33 -15 60 -25 88
-32 199 -95 289 -164 195 -148 315 -338 352 -559 14 -82 15 -108 4 -181 -12
-85 -39 -178 -66 -230 -8 -14 -14 -32 -14 -38 0 -7 -4 -13 -10 -13 -5 0 -10
-5 -10 -12 0 -6 -22 -42 -50 -80 -39 -53 -48 -72 -40 -86 5 -9 21 -48 35 -87
15 -38 30 -79 35 -90 5 -11 19 -45 30 -75 23 -58 28 -68 58 -140 22 -52 62
-158 62 -166 0 -6 -131 64 -189 100 -20 13 -74 43 -121 68 -113 60 -177 96
-223 125 l-39 24 -45 -21 c-79 -37 -182 -71 -338 -110 -68 -17 -401 -25 -495
-11 -131 19 -261 49 -302 72 -10 5 -22 9 -28 9 -24 0 -273 129 -290 150 -3 3
-21 17 -40 30 -40 27 -200 188 -200 200 0 5 -6 15 -14 23 -19 19 -75 121 -93
172 -26 69 -53 206 -53 264 0 31 7 90 16 131 37 183 100 295 249 446 56 57
213 174 234 174 5 0 11 3 13 8 4 10 55 34 158 75 75 30 130 45 320 85 77 16
393 14 484 -4z"/>
<path d="M3138 2172 c-70 -25 -110 -69 -115 -129 -6 -61 23 -108 87 -141 94
-49 231 -10 267 76 34 83 -10 161 -111 195 -59 20 -67 20 -128 -1z"/>
<path d="M2602 2112 c-55 -54 -55 -107 0 -161 25 -24 41 -31 71 -31 105 0 163
106 97 180 -25 28 -38 34 -83 38 -50 4 -57 2 -85 -26z"/>
<path d="M3656 2119 c-51 -40 -53 -120 -3 -169 25 -25 39 -30 76 -30 28 0 54
7 67 18 24 18 54 72 54 95 0 24 -30 76 -53 92 -32 22 -109 19 -141 -6z"/>
</g>
</svg>
