<?xml version="1.0" standalone="no"?>
<!DOCTYPE svg PUBLIC "-//W3C//DTD SVG 20010904//EN"
 "http://www.w3.org/TR/2001/REC-SVG-20010904/DTD/svg10.dtd">
<svg version="1.0" xmlns="http://www.w3.org/2000/svg"
 width="512.000000pt" height="512.000000pt" viewBox="0 0 512.000000 512.000000"
 preserveAspectRatio="xMidYMid meet">
<metadata>
Created by potrace 1.16, written by Peter Selinger 2001-2019
</metadata>
<g transform="translate(0.000000,512.000000) scale(0.100000,-0.100000)"
fill="#000000" stroke="none">
<path d="M2425 5103 c-108 -39 -200 -115 -245 -203 -43 -85 -50 -134 -50 -365
l0 -221 -72 -23 c-40 -13 -120 -48 -178 -77 -368 -189 -651 -532 -761 -923
-47 -167 -50 -207 -58 -696 -9 -523 -14 -570 -88 -800 -53 -167 -121 -298
-347 -675 -194 -322 -207 -348 -203 -384 3 -23 16 -50 33 -67 l28 -29 2076 0
2076 0 28 29 c17 17 30 44 33 67 4 36 -9 62 -202 384 -114 190 -227 384 -251
432 -58 114 -119 294 -150 443 -25 115 -27 139 -34 595 -9 494 -12 534 -59
701 -113 403 -420 763 -801 943 -52 24 -121 52 -152 62 l-58 18 0 222 c0 193
-3 230 -20 286 -37 120 -113 207 -229 261 -58 28 -78 32 -166 34 -77 3 -112
-1 -150 -14z"/>
<path d="M1905 382 c95 -175 272 -311 470 -362 106 -27 264 -27 370 0 198 51
375 187 470 362 l26 48 -681 0 -681 0 26 -48z"/>
</g>
</svg>
