<?xml version="1.0" standalone="no"?>
<!DOCTYPE svg PUBLIC "-//W3C//DTD SVG 20010904//EN"
 "http://www.w3.org/TR/2001/REC-SVG-20010904/DTD/svg10.dtd">
<svg version="1.0" xmlns="http://www.w3.org/2000/svg"
 width="577.000000pt" height="578.000000pt" viewBox="0 0 577.000000 578.000000"
 preserveAspectRatio="xMidYMid meet">
<metadata>
Created by potrace 1.16, written by Peter Selinger 2001-2019
</metadata>
<g transform="translate(0.000000,578.000000) scale(0.100000,-0.100000)"
fill="#000000" stroke="none">
<path d="M2685 5289 c-65 -4 -140 -13 -165 -18 -25 -5 -76 -15 -115 -21 -38
-6 -83 -15 -100 -20 -16 -5 -70 -21 -120 -35 -49 -15 -104 -33 -122 -41 -17
-8 -36 -14 -43 -14 -25 0 -202 -85 -340 -163 -92 -52 -215 -131 -230 -147 -3
-3 -34 -28 -70 -55 -97 -75 -193 -166 -330 -315 -8 -9 -37 -45 -65 -81 -27
-35 -52 -66 -55 -69 -57 -53 -310 -518 -310 -570 0 -7 -6 -26 -14 -43 -8 -18
-26 -72 -41 -122 -14 -49 -30 -103 -35 -120 -9 -30 -32 -157 -52 -290 -13 -90
-13 -478 0 -570 34 -235 94 -462 164 -625 10 -25 23 -54 27 -65 17 -39 66
-140 71 -145 3 -3 16 -27 29 -53 13 -26 44 -78 68 -115 24 -37 49 -76 56 -86
75 -116 316 -378 437 -476 30 -25 57 -47 60 -50 3 -3 34 -27 70 -52 36 -26 70
-51 75 -55 6 -5 62 -38 125 -75 138 -80 265 -140 380 -180 47 -16 94 -34 105
-39 11 -5 47 -15 80 -23 33 -8 78 -19 100 -25 94 -24 211 -42 373 -57 160 -15
187 -15 355 0 160 15 306 39 457 76 98 24 282 93 430 162 75 35 203 109 208
120 2 5 8 8 14 8 12 0 220 149 273 196 80 70 172 161 248 244 77 84 237 299
237 318 0 6 4 12 8 14 8 3 47 68 94 157 38 72 119 264 152 361 53 158 92 357
112 577 15 168 15 195 0 355 -15 162 -33 279 -57 373 -6 22 -17 67 -25 100 -8
33 -18 69 -23 80 -5 11 -23 58 -39 105 -40 115 -100 242 -180 380 -37 63 -70
120 -75 125 -4 6 -29 39 -55 75 -25 36 -49 67 -52 70 -3 3 -25 30 -50 60 -102
126 -359 362 -476 437 -10 7 -49 32 -86 56 -37 24 -89 55 -115 68 -26 13 -50
26 -53 29 -5 5 -106 54 -145 71 -11 4 -40 17 -65 27 -201 87 -501 156 -750
172 -161 11 -184 11 -355 -1z m510 -298 c166 -29 416 -97 450 -121 6 -4 27
-13 49 -20 64 -21 345 -171 382 -205 6 -5 22 -17 34 -25 101 -67 296 -246 396
-362 118 -138 246 -343 315 -503 17 -38 37 -84 45 -102 8 -17 14 -36 14 -42 0
-6 4 -19 9 -29 28 -49 72 -230 99 -402 22 -144 22 -457 0 -600 -22 -134 -46
-251 -57 -270 -5 -9 -12 -31 -16 -50 -26 -119 -147 -378 -257 -547 l-63 -97
-11 79 c-20 141 -53 263 -96 355 -20 42 -102 184 -113 196 -5 7 -19 24 -30 40
-124 173 -294 300 -540 404 -48 20 -144 48 -188 54 -44 7 -53 4 -100 -27 -133
-88 -300 -150 -452 -168 -120 -14 -384 -6 -470 15 -131 31 -242 79 -348 150
l-58 39 -72 -13 c-39 -7 -78 -16 -87 -20 -8 -4 -42 -18 -75 -30 -107 -41 -244
-113 -292 -155 -6 -5 -39 -32 -73 -60 -218 -176 -388 -491 -416 -770 -8 -72
-11 -80 -27 -63 -41 43 -237 390 -237 421 0 5 -7 23 -15 40 -43 94 -94 280
-127 467 -15 85 -15 534 0 620 31 172 58 287 82 345 4 11 20 56 36 100 32 93
162 356 185 375 3 3 12 16 19 29 88 167 464 543 631 631 13 7 26 16 29 19 19
23 282 153 375 185 44 16 89 32 100 36 39 16 121 38 180 49 33 7 78 16 100 22
84 20 217 28 425 23 118 -2 238 -8 265 -13z"/>
<path d="M2700 4711 c-41 -10 -82 -20 -90 -23 -8 -4 -33 -12 -55 -19 -57 -17
-208 -101 -235 -129 -3 -3 -27 -23 -53 -44 -117 -95 -230 -279 -279 -456 -19
-72 -23 -108 -23 -235 0 -179 21 -278 90 -430 8 -17 18 -41 24 -55 14 -33 24
-49 95 -150 131 -187 291 -308 496 -377 44 -14 86 -18 215 -18 142 1 167 3
222 24 70 25 190 87 211 107 7 8 17 14 21 14 5 0 19 10 33 23 14 12 45 40 69
61 24 21 72 75 107 120 81 105 75 96 92 131 8 17 17 32 20 35 11 10 60 119 60
132 0 8 4 18 9 23 9 9 25 66 52 185 14 58 14 292 1 350 -18 78 -44 165 -51
175 -5 6 -13 25 -19 43 -11 31 -74 134 -99 160 -7 7 -13 16 -13 20 0 24 -170
174 -251 221 -194 115 -443 157 -649 112z"/>
</g>
</svg>
