<?xml version="1.0" standalone="no"?>
<!DOCTYPE svg PUBLIC "-//W3C//DTD SVG 20010904//EN"
 "http://www.w3.org/TR/2001/REC-SVG-20010904/DTD/svg10.dtd">
<svg version="1.0" xmlns="http://www.w3.org/2000/svg"
 width="225.000000pt" height="225.000000pt" viewBox="0 0 225.000000 225.000000"
 preserveAspectRatio="xMidYMid meet">
<metadata>
Created by potrace 1.16, written by Peter Selinger 2001-2019
</metadata>
<g transform="translate(0.000000,225.000000) scale(0.100000,-0.100000)"
fill="#000000" stroke="none">
<path d="M950 1764 c-433 -81 -512 -99 -555 -123 -55 -31 -99 -92 -110 -151
l-6 -35 21 28 c32 41 97 74 170 87 36 6 283 52 550 101 267 49 493 89 503 89
11 0 34 -15 53 -34 31 -31 34 -39 34 -95 l0 -61 39 0 c22 0 47 -3 57 -7 15 -6
16 0 12 65 -6 87 -37 151 -91 196 -64 51 -101 48 -677 -60z"/>
<path d="M390 1518 c-26 -14 -57 -41 -75 -66 l-30 -44 0 -441 c0 -498 -3 -475
78 -541 l39 -31 663 0 663 0 39 31 c69 56 78 81 81 242 l4 142 -162 0 c-158 0
-161 1 -185 25 -23 23 -25 31 -25 130 0 99 2 107 25 130 24 24 28 25 185 25
l160 0 0 124 c0 67 -5 138 -11 157 -18 53 -58 99 -103 120 -39 17 -77 19 -671
19 l-631 0 -44 -22z"/>
<path d="M1522 1078 c-8 -8 -12 -48 -12 -113 0 -65 4 -105 12 -113 9 -9 71
-12 220 -12 244 0 228 -9 228 129 0 68 -4 93 -16 105 -13 14 -47 16 -218 16
-144 0 -205 -3 -214 -12z"/>
</g>
</svg>
